<?xml version="1.0" encoding="UTF-8"?>
<svg width="512px" height="512px" enable-background="new 0 0 409.806 409.806" version="1.1" viewBox="0 0 409.81 409.81" xml:space="preserve" xmlns="http://www.w3.org/2000/svg">
	
		<path class="active-path" d="m228.93 205.01 175.67-175.67c6.78-6.548 6.968-17.352 0.42-24.132s-17.352-6.968-24.132-0.42c-0.142 0.137-0.282 0.277-0.42 0.42l-175.67 175.67-175.67-175.67c-6.78-6.548-17.584-6.36-24.132 0.42-6.388 6.614-6.388 17.099 0 23.713l175.67 175.67-175.67 175.67c-6.663 6.664-6.663 17.468 0 24.132 6.664 6.662 17.468 6.662 24.132 0l175.67-175.67 175.67 175.67c6.78 6.548 17.584 6.36 24.132-0.42 6.387-6.614 6.387-17.099 0-23.712l-175.67-175.67z" fill="#aaa" data-old_color="#000000" data-original="#000000"/>
	
 </svg>
