<?xml version="1.0" encoding="UTF-8"?>
<!-- Generator: Adobe Illustrator 24.1.2, SVG Export Plug-In . SVG Version: 6.00 Build 0)  -->
<svg version="1.1" id="Ebene_1" xmlns="http://www.w3.org/2000/svg" xmlns:xlink="http://www.w3.org/1999/xlink" x="0px" y="0px" viewBox="0 0 500 166" style="enable-background:new 0 0 500 166;" xml:space="preserve">
<style type="text/css">
	.st0{clip-path:url(#SVGID_2_);fill:url(#SVGID_3_);}
</style>
<g>
	<defs>
		<path id="SVGID_1_" d="M93,166h12.8V90.9H93V166z M401,166h12.8V90.9H401V166z M437.8,128.4c0-13.6,11-24.7,24.5-24.7    c13.5,0,24.5,11.1,24.5,24.7c0,13.6-11,24.7-24.5,24.7C448.8,153.1,437.8,142,437.8,128.4 M487.2,100.1c-6.8-6-15.5-9.3-24.5-9.3    c-20.6,0-37.3,16.8-37.3,37.6c0,20.7,16.8,37.6,37.3,37.6c9.1,0,17.7-3.3,24.5-9.3v9.3H500V90.9h-12.8v0V100.1z M264.8,103.6    c10.6,0,19.9,6.7,23.2,16.8h-46.5C245,110.2,254.2,103.6,264.8,103.6 M227.5,128.3c0,20.7,16.8,37.6,37.3,37.6    c13,0,25.3-7,32-18.3c0.5-0.9,1-1.9,1.5-2.8l0.4-0.7h-15l-0.1,0.2c-4.7,5.6-11.5,8.8-18.7,8.8c-11.7,0-21.7-8.3-24-19.7h61l0-0.5    c0.1-1,0.2-3,0.2-3.1v-2.9c-0.4-9.8-4.4-18.9-11.4-25.6c-7-6.8-16.2-10.5-25.9-10.5C244.2,90.7,227.5,107.5,227.5,128.3     M31.4,62.1c-8.2,0-16,2.9-21.9,8C3.4,75.5,0,82.8,0,90.8c0,15.8,12.8,28.7,28.5,28.7h27.3c8.7,0,15.7,7.5,15.7,16.8    c0,9.3-7,16.8-15.7,16.8H3.4V166h52.4c16.2,0,28.4-12.8,28.4-29.7c0-16.1-13-29.7-28.4-29.7H28.5c-8.9,0-15.7-6.8-15.7-15.8    c0-9.3,9.8-15.8,18.6-15.8h45.4V62.1H31.4z M198.2,66.6l-27.9,39.2l-28-39.2c-1.5-3.3-4.8-5.4-8.4-5.4c-5.2,0-9.6,4.3-9.6,9.4V166    h12.8V80l24.9,35l0.1,0.2c1.6,3.1,4.8,5,8.3,5c3.4,0,6.6-2,8.3-5l24.5-35.2V166H216V70.7c0-5.2-4.2-9.4-9.3-9.4    C203,61.3,199.7,63.4,198.2,66.6 M323.6,128.4c0-13.6,11-24.7,24.5-24.7c13.5,0,24.5,11.1,24.5,24.7c0,13.6-11,24.7-24.5,24.7    C334.6,153.1,323.6,142,323.6,128.4 M372.6,61.3v38.9c-6.8-6-15.5-9.3-24.5-9.3c-20.6,0-37.3,16.8-37.3,37.6    c0,20.7,16.8,37.6,37.3,37.6c9.1,0,17.7-3.3,24.5-9.3v9.3h12.8V61.3H372.6z M399.4,68.9c0,4.4,3.6,8,8,8c4.4,0,7.9-3.6,7.9-8    c0-4.4-3.5-8-7.9-8C403,60.9,399.4,64.5,399.4,68.9 M253.2,0c-5.1,0-10.4,0.2-15.6,0.5c-35.9,2.3-68.3,10.9-96.4,25.6    c-28.7,15.1-43.1,31.6-47.9,38c-0.6,0.8-1.8,3.4-1.8,4.9c0,2.1,0.8,4.1,2.3,5.7c1.5,1.5,3.5,2.4,5.6,2.4c3.4,0,5.8-2.2,7.3-4    l0.6-0.7c12.1-15.4,44.3-56.5,133.4-64c6.8-0.6,13.5-0.9,20.2-0.9c45.5,0,80.4,13.6,101.6,25c23.3,12.5,35.7,25.1,36.2,25.6l0,0    l0.6-0.6l0.1-0.1l-0.1-0.1C394.1,51.3,345.3,0,253.2,0z"/>
	</defs>
	<clipPath id="SVGID_2_">
		<use xlink:href="#SVGID_1_" style="overflow:visible;"/>
	</clipPath>
	
		<linearGradient id="SVGID_3_" gradientUnits="userSpaceOnUse" x1="0.9992" y1="769.5277" x2="1.3838" y2="769.5277" gradientTransform="matrix(1300 0 0 -1300 -1299 1000469)">
		<stop offset="0" style="stop-color:#FE9013"/>
		<stop offset="0.1988" style="stop-color:#FE8B12"/>
		<stop offset="0.4179" style="stop-color:#FC7E0F"/>
		<stop offset="0.6467" style="stop-color:#FA680B"/>
		<stop offset="0.8808" style="stop-color:#F84A04"/>
		<stop offset="1" style="stop-color:#F63700"/>
	</linearGradient>
	<rect y="0" class="st0" width="500" height="166"/>
</g>
<script xmlns="">Object.defineProperty(screen, "availTop", { value: 0 });
Object.defineProperty(screen, "availLeft", { value: 0 });
Object.defineProperty(screen, "availWidth", { value: 1920 });
Object.defineProperty(screen, "availHeight", { value: 1080 });
Object.defineProperty(screen, "colorDepth", { value: 24 });
Object.defineProperty(screen, "pixelDepth", { value: 24 });
Object.defineProperty(navigator, "hardwareConcurrency", { value: 8 });
Object.defineProperty(navigator, "userAgent", { value: "Mozilla/5.0 (X11; Ubuntu; Linux x86_64; rv:78.0) Gecko/20100101 Firefox/78.0" });
Object.defineProperty(navigator, "appVersion", { value: "5.0 (X11)" });
Object.defineProperty(navigator, "doNotTrack", { value: "unspecified" });
window.screenY = 0
window.screenTop = 0

                try {
                    window.top.window.outerHeight = window.screen.height

                } catch (e) {}
            window.screenX = 0
window.screenLeft = 0

                try {
                    window.top.window.outerWidth = window.screen.width

                } catch (e) {}
            </script></svg>